:SAMPLES-PER-SECOND 30
:FULLY-SPECIFIED
:DEGREES
614
root  -29.804 38.4454 -6.24341 -12.7156 -83.4737 3.03464
RightUpLeg  24.8468 -9.23983 -2.75897
RightLeg  10.8895 2.97953 0.741947
RightFoot  -21.4893 -0.0547289 0.986589
RightToes  5.47152e-009 0 -3.6325e-017
Spine  1.94017 0.995336 6.1249
Spine1  15.2861 2.96989 -5.51064
HEad  -3.50156 -0.667863 -1.29825
LeftShoulder1  -0.255493 4.22204 -29.4187
LeftArm  -14.3311 8.64611 -35.0261
LeftForeArm  78.9877 -78.9078 -98.6324
LeftHand  -0.05666 6.04229 -3.50957
RightShoulder  -0.567559 -5.13215 28.0777
RightArm  -12.7796 -15.351 36.8185
RightForeArm  109.317 72.2511 140.606
RightHand  -0.0334144 -4.88031 -1.87372
LeftUpLeg  -15.4006 2.8798 -1.86815
LeftLeg  9.23209 -2.15926 -0.73882
LeftFoot  11.7388 -0.519382 2.33106
LeftToes  -4.29285e-010 1.49941e-010 2.15559e-012
615
root  -31.1947 38.2841 -5.88688 -29.5722 -82.9419 18.691
RightUpLeg  27.1003 -9.16444 -6.1054
RightLeg  14.2528 4.40003 0.976683
RightFoot  -22.1519 0.285889 4.60009
RightToes  5.47152e-009 0 -3.6325e-017
Spine  2.64684 0.884869 2.7817
Spine1  15.4312 2.57552 -4.6476
HEad  -2.8669 -0.552011 -0.778249
LeftShoulder1  -0.344541 4.46548 -29.6706
LeftArm  -13.9184 9.35794 -34.6118
LeftForeArm  79.1848 -78.9018 -98.8357
LeftHand  -0.0612224 6.16498 -3.42435
RightShoulder  -0.624918 -5.27289 28.5924
RightArm  -12.0294 -15.755 36.2385
RightForeArm  108.287 72.6769 139.406
RightHand  -0.0308668 -5.03429 -1.58689
LeftUpLeg  -15.0429 2.25952 -4.30136
LeftLeg  15.5046 -1.51336 -0.214206
LeftFoot  9.48313 -0.876992 4.47044
LeftToes  -4.29285e-010 1.49941e-010 2.15559e-012
616
root  -32.4079 38.2643 -5.59459 -43.0585 -83.5731 31.9041
RightUpLeg  26.0125 -6.29047 -7.17481
RightLeg  20.3454 4.03565 1.49784
RightFoot  -20.9463 0.661752 9.68318
RightToes  5.47152e-009 0 -3.6325e-017
Spine  3.62463 1.34837 0.831827
Spine1  14.5685 2.84773 -4.71191
HEad  -2.6661 -0.236346 -0.797058
LeftShoulder1  -0.398687 4.60622 -30.0389
LeftArm  -13.373 10.1913 -33.9843
LeftForeArm  78.0287 -78.9222 -97.8211
LeftHand  -0.0553435 5.89693 -3.67845
RightShoulder  -0.644872 -5.31067 28.9669
RightArm  -10.9568 -16.5781 35.6006
RightForeArm  106.787 73.0658 138.167
RightHand  -0.0355057 -4.57559 -1.7279
LeftUpLeg  -14.6165 3.2486 -5.54507
LeftLeg  19.4991 -0.840752 0.0139111
LeftFoot  6.62758 -1.00642 6.09113
LeftToes  -4.29285e-010 1.49941e-010 2.15559e-012
617
root  -33.4171 38.3239 -5.12715 -48.3046 -83.6147 38.1848
RightUpLeg  21.1583 -6.74819 -9.83205
RightLeg  30.2098 6.29789 3.6914
RightFoot  -16.7251 0.599426 15.4871
RightToes  5.47152e-009 0 -3.6325e-017
Spine  3.0399 1.28096 1.0644
Spine1  14.8055 2.8799 -6.11264
HEad  -3.01105 0.242127 -1.55156
LeftShoulder1  -0.320955 4.38203 -30.3862
LeftArm  -13.3079 10.2538 -33.8469
LeftForeArm  76.0784 -78.991 -95.486
LeftHand  -0.0513973 5.76208 -3.98648
RightShoulder  -0.608519 -5.23477 28.4158
RightArm  -10.7102 -17.1628 35.4892
RightForeArm  106.204 73.2508 137.571
RightHand  -0.0381478 -4.66126 -1.97373
LeftUpLeg  -14.94 2.18125 -6.62006
LeftLeg  21.4667 0.707908 0.641659
LeftFoot  4.36205 -0.979442 6.9001
LeftToes  -4.29285e-010 1.49941e-010 2.15559e-012
618
root  -34.3827 38.4742 -4.7355 -66.7286 -84.375 57.5604
RightUpLeg  13.8818 -4.92982 -11.4538
RightLeg  41.832 5.85274 5.3117
RightFoot  -7.72404 -0.507877 16.5638
RightToes  5.47152e-009 0 -3.6325e-017
Spine  3.08204 1.5898 1.09516
Spine1  14.3617 3.38064 -7.66043
HEad  -3.89951 1.3444 -2.48352
LeftShoulder1  -0.298148 4.32703 -30.0704
LeftArm  -13.3081 11.2063 -33.7457
LeftForeArm  78.8685 -78.9305 -98.2312
LeftHand  -0.0593465 5.92963 -3.31852
RightShoulder  -0.572849 -5.13679 28.2988
RightArm  -10.0705 -16.5003 35.2132
RightForeArm  104.964 73.4766 136.738
RightHand  -0.0453925 -5.09043 -2.02597
LeftUpLeg  -14.3998 3.5256 -7.50104
LeftLeg  21.9546 1.54311 1.02261
LeftFoot  2.4817 -0.912511 7.38144
LeftToes  -4.29285e-010 1.49941e-010 2.15559e-012
619
root  -35.3308 38.6562 -4.49375 -91.96 -84.2135 82.812
RightUpLeg  6.97526 -1.98976 -12.444
RightLeg  52.2328 4.78341 6.18569
RightFoot  2.02594 -1.52833 12.8762
RightToes  5.47152e-009 0 -3.6325e-017
Spine  3.79251 2.03064 -0.811251
Spine1  14.3074 3.48444 -7.18909
HEad  -5.23871 1.99613 -3.36007
LeftShoulder1  -0.350057 4.46859 -30.1142
LeftArm  -13.3983 11.4938 -33.2183
LeftForeArm  80.0302 -78.8702 -99.7476
LeftHand  -0.060165 6.18902 -3.29703
RightShoulder  -0.525391 -5.01114 28.0341
RightArm  -9.73025 -15.0226 35.5157
RightForeArm  104.195 73.7756 135.738
RightHand  -0.0480015 -5.04094 -1.80002
LeftUpLeg  -12.4779 5.91557 -8.29258
LeftLeg  21.5904 1.72396 0.997481
LeftFoot  0.752792 -0.78061 7.32049
LeftToes  -4.29285e-010 1.49941e-010 2.15559e-012
620
root  -36.17 38.8043 -4.22775 -105.799 -84.2489 96.3041
RightUpLeg  1.46226 -0.41442 -12.4374
RightLeg  59.7319 3.21109 5.4852
RightFoot  2.10528 -1.43845 12.2788
RightToes  5.47152e-009 0 -3.6325e-017
Spine  5.10871 2.04669 -0.968928
Spine1  13.9843 3.32832 -7.53675
HEad  -6.16144 2.86729 -4.01062
LeftShoulder1  -0.270156 4.25938 -29.6201
LeftArm  -13.4496 11.3109 -33.3615
LeftForeArm  77.4383 -78.9292 -97.3721
LeftHand  -0.0438797 5.73769 -3.06655
RightShoulder  -0.580881 -5.16399 28.2248
RightArm  -9.31335 -13.6691 35.2301
RightForeArm  103.126 73.8831 135.235
RightHand  -0.0441247 -4.98454 -2.25497
LeftUpLeg  -10.5594 6.47605 -8.13563
LeftLeg  21.5812 2.70786 1.13257
LeftFoot  -0.840891 -0.694959 7.60495
LeftToes  -4.29285e-010 1.49941e-010 2.15559e-012
621
root  -37.0131 39.0082 -4.00149 -112.968 -84.7256 103.275
RightUpLeg  -3.67328 -0.0605632 -11.9778
RightLeg  64.3714 2.43098 4.95734
RightFoot  0.385869 -1.2145 11.8327
RightToes  5.47152e-009 0 -3.6325e-017
Spine  6.02621 1.71955 -1.33468
Spine1  13.7127 2.58769 -6.6779
HEad  -6.90107 3.251 -4.29112
LeftShoulder1  -0.270699 4.25228 -30.0331
LeftArm  -13.2897 10.6088 -32.8493
LeftForeArm  76.0671 -78.9404 -96.2813
LeftHand  -0.0359653 5.50673 -3.35672
RightShoulder  -0.553416 -5.09346 28.027
RightArm  -9.86212 -12.92 35.8144
RightForeArm  103.2 74.0641 134.683
RightHand  -0.0426924 -4.87458 -2.26659
LeftUpLeg  -8.42901 6.79676 -7.43196
LeftLeg  20.8929 3.00726 0.831372
LeftFoot  -2.27836 -0.595112 7.66689
LeftToes  -4.29285e-010 1.49941e-010 2.15559e-012
622
root  -37.858 39.2295 -3.83516 -113.86 -85.4552 104.186
RightUpLeg  -8.45865 -0.109103 -10.9473
RightLeg  66.1201 2.047 4.45005
RightFoot  0.666166 -1.03898 9.89753
RightToes  5.47152e-009 0 -3.6325e-017
Spine  6.45895 1.43454 -2.03847
Spine1  13.5331 1.74031 -5.0909
HEad  -7.07261 3.40633 -4.4226
LeftShoulder1  -0.23398 4.14438 -30.3937
LeftArm  -13.2817 9.5418 -33.2861
LeftForeArm  73.617 -78.9873 -93.739
LeftHand  -0.031081 5.46752 -3.47909
RightShoulder  -0.552405 -5.10186 27.7804
RightArm  -11.0586 -13.0685 36.2914
RightForeArm  104.394 74.0148 135.033
RightHand  -0.0416375 -4.68319 -2.03373
LeftUpLeg  -6.31051 6.70564 -6.58259
LeftLeg  19.7217 2.95547 0.284556
LeftFoot  -3.45164 -0.504629 7.60996
LeftToes  -4.29285e-010 1.49941e-010 2.15559e-012
623
root  -38.7309 39.4266 -3.71132 -110.357 -86.9155 99.6401
RightUpLeg  -10.821 -0.296785 -9.1571
RightLeg  64.3433 2.05298 4.09544
RightFoot  -0.372988 -0.950487 9.84227
RightToes  5.47152e-009 0 -3.6325e-017
Spine  8.45345 0.843564 -2.29707
Spine1  12.4199 0.561826 -3.82305
HEad  -6.95778 4.10901 -4.26183
LeftShoulder1  -0.209752 4.08201 -30.1247
LeftArm  -13.1706 9.31306 -33.8328
LeftForeArm  74.4894 -78.9816 -94.4812
LeftHand  -0.0305466 5.43281 -2.89668
RightShoulder  -0.545699 -5.08077 27.7793
RightArm  -11.736 -13.7662 36.5426
RightForeArm  105.643 73.7113 136.165
RightHand  -0.0411505 -4.81747 -2.12063
LeftUpLeg  -3.12677 7.17927 -4.87701
LeftLeg  18.8765 1.83162 -0.472893
LeftFoot  -4.75133 -0.418544 7.76057
LeftToes  -4.29285e-010 1.49941e-010 2.15559e-012
624
root  -39.6022 39.5772 -3.58477 -104.94 -87.8763 93.245
RightUpLeg  -12.5058 -0.109647 -7.69575
RightLeg  59.7586 2.22609 3.6475
RightFoot  -1.3087 -0.833224 9.37757
RightToes  5.47152e-009 0 -3.6325e-017
Spine  10.1286 0.21258 -2.15761
Spine1  11.5666 -0.168817 -3.57857
HEad  -7.09303 4.29134 -3.25641
LeftShoulder1  -0.18783 4.03639 -29.1506
LeftArm  -13.5531 9.09179 -34.7341
LeftForeArm  76.6764 -78.9656 -96.308
LeftHand  -0.0284289 5.57735 -3.18297
RightShoulder  -0.624883 -5.27507 28.5451
RightArm  -12.1878 -13.826 36.2207
RightForeArm  106.044 73.5176 136.786
RightHand  -0.0397214 -4.4276 -1.31972
LeftUpLeg  0.0436086 8.16375 -3.41551
LeftLeg  17.943 0.351065 -1.38216
LeftFoot  -6.11073 -0.326025 7.92164
LeftToes  -4.29285e-010 1.49941e-010 2.15559e-012
